{
	"asset":{
		"generator":"Khronos glTF Blender I/O v3.5.30",
		"version":"2.0"
	},
	"scene":0,
	"scenes":[
		{
			"name":"Scene",
			"nodes":[
				0,
				1,
				2
			]
		}
	],
	"nodes":[
		{
			"mesh":0,
			"name":"CircularPlatform",
			"scale":[
				5.349999904632568,
				1,
				5.349999904632568
			],
			"translation":[
				0,
				3,
				0
			]
		},
		{
			"mesh":1,
			"name":"Ramp.001",
			"rotation":[
				0,
				0.7071068286895752,
				0,
				0.7071068286895752
			],
			"scale":[
				1,
				1,
				2
			],
			"translation":[
				0,
				0,
				-15
			]
		},
		{
			"mesh":2,
			"name":"CircularPlatform.002",
			"scale":[
				5.349999904632568,
				1,
				5.349999904632568
			],
			"translation":[
				0,
				0.25,
				-30
			]
		}
	],
	"meshes":[
		{
			"name":"Cube.001",
			"primitives":[
				{
					"attributes":{
						"POSITION":0,
						"TEXCOORD_0":1,
						"NORMAL":2
					},
					"indices":3
				}
			]
		},
		{
			"name":"Cube.002",
			"primitives":[
				{
					"attributes":{
						"POSITION":4,
						"TEXCOORD_0":5,
						"NORMAL":6
					},
					"indices":7
				}
			]
		},
		{
			"name":"Cube.006",
			"primitives":[
				{
					"attributes":{
						"POSITION":8,
						"TEXCOORD_0":9,
						"NORMAL":10
					},
					"indices":3
				}
			]
		}
	],
	"accessors":[
		{
			"bufferView":0,
			"componentType":5126,
			"count":144,
			"max":[
				1,
				0.25,
				1
			],
			"min":[
				-1,
				-0.25,
				-1
			],
			"type":"VEC3"
		},
		{
			"bufferView":1,
			"componentType":5126,
			"count":144,
			"type":"VEC2"
		},
		{
			"bufferView":2,
			"componentType":5126,
			"count":144,
			"type":"VEC3"
		},
		{
			"bufferView":3,
			"componentType":5123,
			"count":276,
			"type":"SCALAR"
		},
		{
			"bufferView":4,
			"componentType":5126,
			"count":24,
			"max":[
				9.999998092651367,
				3.25,
				1
			],
			"min":[
				-10.000001907348633,
				0,
				-1
			],
			"type":"VEC3"
		},
		{
			"bufferView":5,
			"componentType":5126,
			"count":24,
			"type":"VEC2"
		},
		{
			"bufferView":6,
			"componentType":5126,
			"count":24,
			"type":"VEC3"
		},
		{
			"bufferView":7,
			"componentType":5123,
			"count":36,
			"type":"SCALAR"
		},
		{
			"bufferView":8,
			"componentType":5126,
			"count":144,
			"max":[
				1,
				0.25,
				1
			],
			"min":[
				-1,
				-0.25,
				-1
			],
			"type":"VEC3"
		},
		{
			"bufferView":9,
			"componentType":5126,
			"count":144,
			"type":"VEC2"
		},
		{
			"bufferView":10,
			"componentType":5126,
			"count":144,
			"type":"VEC3"
		}
	],
	"bufferViews":[
		{
			"buffer":0,
			"byteLength":1728,
			"byteOffset":0,
			"target":34962
		},
		{
			"buffer":0,
			"byteLength":1152,
			"byteOffset":1728,
			"target":34962
		},
		{
			"buffer":0,
			"byteLength":1728,
			"byteOffset":2880,
			"target":34962
		},
		{
			"buffer":0,
			"byteLength":552,
			"byteOffset":4608,
			"target":34963
		},
		{
			"buffer":0,
			"byteLength":288,
			"byteOffset":5160,
			"target":34962
		},
		{
			"buffer":0,
			"byteLength":192,
			"byteOffset":5448,
			"target":34962
		},
		{
			"buffer":0,
			"byteLength":288,
			"byteOffset":5640,
			"target":34962
		},
		{
			"buffer":0,
			"byteLength":72,
			"byteOffset":5928,
			"target":34963
		},
		{
			"buffer":0,
			"byteLength":1728,
			"byteOffset":6000,
			"target":34962
		},
		{
			"buffer":0,
			"byteLength":1152,
			"byteOffset":7728,
			"target":34962
		},
		{
			"buffer":0,
			"byteLength":1728,
			"byteOffset":8880,
			"target":34962
		}
	],
	"buffers":[
		{
			"byteLength":10608,
			"uri":"platform-scene2.bin"
		}
	]
}
